<svg xmlns="http://www.w3.org/2000/svg" xmlns:xlink="http://www.w3.org/1999/xlink" contentStyleType="text/css" data-diagram-type="DESCRIPTION" height="453px" preserveAspectRatio="none" style="width:603px;height:453px;background:#FFFFFF;" version="1.1" viewBox="0 0 603 453" width="603px" zoomAndPan="magnify"><defs/><g><!--cluster ??????--><g class="cluster" data-entity="......" data-source-line="5" data-uid="ent0004" id="cluster_......"><rect fill="none" height="440" rx="2.5" ry="2.5" style="stroke:#181818;stroke-width:1;" width="460.26" x="137" y="7"/><text fill="#000000" font-family="sans-serif" font-size="14" font-weight="bold" lengthAdjust="spacing" textLength="83.9996" x="325.1302" y="21.9951">&#24535;&#24895;&#26381;&#21153;&#31995;&#32479;</text></g><!--entity UC1--><g class="entity" data-entity="UC1" data-source-line="6" data-uid="ent0005" id="entity_UC1"><ellipse cx="243.1124" cy="414.0005" fill="#F1F1F1" rx="72.2524" ry="16.8505" style="stroke:#181818;stroke-width:0.5;"/><text fill="#000000" font-family="sans-serif" font-size="14" lengthAdjust="spacing" textLength="111.9995" x="187.1127" y="418.6489">&#21457;&#24067;&#24535;&#24895;&#26381;&#21153;&#39033;&#30446;</text></g><!--entity UC2--><g class="entity" data-entity="UC2" data-source-line="7" data-uid="ent0006" id="entity_UC2"><ellipse cx="243.1124" cy="59.0005" fill="#F1F1F1" rx="72.2524" ry="16.8505" style="stroke:#181818;stroke-width:0.5;"/><text fill="#000000" font-family="sans-serif" font-size="14" lengthAdjust="spacing" textLength="111.9995" x="187.1127" y="63.6489">&#26597;&#30475;&#24535;&#24895;&#26381;&#21153;&#39033;&#30446;</text></g><!--entity UC3--><g class="entity" data-entity="UC3" data-source-line="8" data-uid="ent0007" id="entity_UC3"><ellipse cx="243.1124" cy="128.0005" fill="#F1F1F1" rx="72.2524" ry="16.8505" style="stroke:#181818;stroke-width:0.5;"/><text fill="#000000" font-family="sans-serif" font-size="14" lengthAdjust="spacing" textLength="111.9995" x="187.1127" y="132.6489">&#25253;&#21517;&#24535;&#24895;&#26381;&#21153;&#39033;&#30446;</text></g><!--entity UC4--><g class="entity" data-entity="UC4" data-source-line="9" data-uid="ent0008" id="entity_UC4"><ellipse cx="243.1124" cy="272.0005" fill="#F1F1F1" rx="72.2524" ry="16.8505" style="stroke:#181818;stroke-width:0.5;"/><text fill="#000000" font-family="sans-serif" font-size="14" lengthAdjust="spacing" textLength="111.9995" x="187.1127" y="276.6489">&#26597;&#30475;&#25253;&#21517;&#23398;&#29983;&#20449;&#24687;</text></g><!--entity UC5--><g class="entity" data-entity="UC5" data-source-line="10" data-uid="ent0009" id="entity_UC5"><ellipse cx="243.1131" cy="342.9986" fill="#F1F1F1" rx="83.9931" ry="19.1986" style="stroke:#181818;stroke-width:0.5;"/><text fill="#000000" font-family="sans-serif" font-size="14" lengthAdjust="spacing" textLength="139.9994" x="173.1134" y="347.6471">&#36873;&#25321;&#31526;&#21512;&#35201;&#27714;&#30340;&#24535;&#24895;&#32773;</text></g><!--entity UC6--><g class="entity" data-entity="UC6" data-source-line="11" data-uid="ent0010" id="entity_UC6"><ellipse cx="243.1141" cy="200.0028" fill="#F1F1F1" rx="90.1141" ry="20.4228" style="stroke:#181818;stroke-width:0.5;"/><text fill="#000000" font-family="sans-serif" font-size="14" lengthAdjust="spacing" textLength="153.9993" x="166.1145" y="204.6513">&#39033;&#30446;&#32467;&#26463;&#21518;&#36827;&#34892;&#21452;&#21521;&#25171;&#20998;</text></g><!--entity UC7--><g class="entity" data-entity="UC7" data-source-line="12" data-uid="ent0011" id="entity_UC7"><ellipse cx="519.7442" cy="200.0028" fill="#F1F1F1" rx="61.5142" ry="14.7028" style="stroke:#181818;stroke-width:0.5;"/><text fill="#000000" font-family="sans-serif" font-size="14" lengthAdjust="spacing" textLength="83.9996" x="477.7444" y="204.6513">&#26356;&#26032;&#21382;&#21490;&#20449;&#24687;</text></g><!--entity ??--><g class="entity" data-entity=".." data-source-line="2" data-uid="ent0002" id="entity_.."><ellipse cx="47.9999" cy="98.35" fill="#F1F1F1" rx="8" ry="8" style="stroke:#181818;stroke-width:0.5;"/><path d="M47.9999,106.35 L47.9999,133.35 M34.9999,114.35 L60.9999,114.35 M47.9999,133.35 L34.9999,148.35 M47.9999,133.35 L60.9999,148.35" fill="none" style="stroke:#181818;stroke-width:0.5;"/><text fill="#000000" font-family="sans-serif" font-size="14" lengthAdjust="spacing" textLength="27.9999" x="34" y="162.8451">&#23398;&#29983;</text></g><!--entity ??????--><g class="entity" data-entity="......" data-source-line="3" data-uid="ent0003" id="entity_......"><ellipse cx="47.9998" cy="278.35" fill="#F1F1F1" rx="8" ry="8" style="stroke:#181818;stroke-width:0.5;"/><path d="M47.9998,286.35 L47.9998,313.35 M34.9998,294.35 L60.9998,294.35 M47.9998,313.35 L34.9998,328.35 M47.9998,313.35 L60.9998,328.35" fill="none" style="stroke:#181818;stroke-width:0.5;"/><text fill="#000000" font-family="sans-serif" font-size="14" lengthAdjust="spacing" textLength="83.9996" x="6" y="342.8451">&#24535;&#24895;&#26381;&#21153;&#22242;&#20307;</text></g><!--link ?????? to UC1--><g class="link" data-entity-1="......" data-entity-2="UC1" data-source-line="15" data-uid="lnk12" id="link_......_UC1"><path d="M84.97,346.54 C97.89,358.62 113.2,371.11 129,380 C147.05,390.15 162.6825,396.0075 181.9925,401.2875" fill="none" id="&#24535;&#24895;&#26381;&#21153;&#22242;&#20307;-to-UC1" style="stroke:#181818;stroke-width:1;"/><polygon fill="#181818" points="187.78,402.87,180.1537,396.6379,182.957,401.5512,178.0437,404.3546,187.78,402.87" style="stroke:#181818;stroke-width:1;"/></g><!--link ?? to UC2--><g class="link" data-entity-1=".." data-entity-2="UC2" data-source-line="16" data-uid="lnk13" id="link_.._UC2"><path d="M62.42,121.8 C78.18,114.64 105.19,102.72 129,94 C150.72,86.05 169.4413,80.0482 190.0513,73.8882" fill="none" id="&#23398;&#29983;-to-UC2" style="stroke:#181818;stroke-width:1;"/><polygon fill="#181818" points="195.8,72.17,186.0315,70.9148,191.0094,73.6018,188.3224,78.5798,195.8,72.17" style="stroke:#181818;stroke-width:1;"/></g><!--link ?? to UC3--><g class="link" data-entity-1=".." data-entity-2="UC3" data-source-line="17" data-uid="lnk14" id="link_.._UC3"><path d="M62.27,128 C84.43,128 124.46,128 164.4,128" fill="none" id="&#23398;&#29983;-to-UC3" style="stroke:#181818;stroke-width:1;"/><polygon fill="#181818" points="170.4,128,161.4,124,165.4,128,161.4,132,170.4,128" style="stroke:#181818;stroke-width:1;"/></g><!--link ?????? to UC4--><g class="link" data-entity-1="......" data-entity-2="UC4" data-source-line="18" data-uid="lnk15" id="link_......_UC4"><path d="M90.43,300.28 C118.25,295.09 149.3414,289.2885 179.8414,283.6085" fill="none" id="&#24535;&#24895;&#26381;&#21153;&#22242;&#20307;-to-UC4" style="stroke:#181818;stroke-width:1;"/><polygon fill="#181818" points="185.74,282.51,176.1598,280.2253,180.8245,283.4254,177.6244,288.0901,185.74,282.51" style="stroke:#181818;stroke-width:1;"/></g><!--link ?????? to UC5--><g class="link" data-entity-1="......" data-entity-2="UC5" data-source-line="19" data-uid="lnk16" id="link_......_UC5"><path d="M90.43,315.51 C115.36,320.03 141.7763,324.8091 170.1663,329.9591" fill="none" id="&#24535;&#24895;&#26381;&#21153;&#22242;&#20307;-to-UC5" style="stroke:#181818;stroke-width:1;"/><polygon fill="#181818" points="176.07,331.03,167.9285,325.4878,171.1503,330.1376,166.5006,333.3594,176.07,331.03" style="stroke:#181818;stroke-width:1;"/></g><!--link ?????? to UC6--><g class="link" data-entity-1="......" data-entity-2="UC6" data-source-line="20" data-uid="lnk17" id="link_......_UC6"><path d="M86.9,269.4 C99.49,258.13 114.12,246.55 129,238 C145.26,228.66 158.4583,223.0483 176.0983,217.2683" fill="none" id="&#24535;&#24895;&#26381;&#21153;&#22242;&#20307;-to-UC6" style="stroke:#181818;stroke-width:1;"/><polygon fill="#181818" points="181.8,215.4,172.0019,214.4012,177.0486,216.9569,174.4929,222.0035,181.8,215.4" style="stroke:#181818;stroke-width:1;"/></g><!--link ?? to UC6--><g class="link" data-entity-1=".." data-entity-2="UC6" data-source-line="21" data-uid="lnk18" id="link_.._UC6"><path d="M62.46,134.1 C78.25,141.17 105.3,153 129,162 C148.56,169.43 164.594,175.0242 183.744,181.3642" fill="none" id="&#23398;&#29983;-to-UC6" style="stroke:#181818;stroke-width:1;"/><polygon fill="#181818" points="189.44,183.25,182.1532,176.6241,184.6934,181.6785,179.6389,184.2187,189.44,183.25" style="stroke:#181818;stroke-width:1;"/></g><!--link UC6 to UC7--><g class="link" data-entity-1="UC6" data-entity-2="UC7" data-source-line="22" data-uid="lnk19" id="link_UC6_UC7"><path d="M333.66,200 C374.35,200 415.45,200 451.94,200" fill="none" id="UC6-to-UC7" style="stroke:#181818;stroke-width:1;"/><polygon fill="#181818" points="457.94,200,448.94,196,452.94,200,448.94,204,457.94,200" style="stroke:#181818;stroke-width:1;"/><text fill="#000000" font-family="sans-serif" font-size="13" lengthAdjust="spacing" textLength="63.0068" x="364.23" y="196.0669">&#171;include&#187;</text></g><!--SRC=[TP7BIiD058RtynH3zrtOImfIil4PV82GnXe82IJfIeHMQ-azAH45KmaHMX2ywq89afVfcKdVmfgEu4GpS60E__UVouoc7DZODh2fDWzjt51DHRPLGqUIR1icXlibFGz-alYIT6Cody0m1FzczUaXz8rBUbDJE9M-HZGAy172czEo55co55m0PmRlfx-vTVX1_OS2bYoylxV3qoHOqFaebovbwE42t4akNVwlDlEaAwxYa7GU6LtXwNLxG4Qtz6u9RZzPTiZp2RtgRbibxJFcgMOyQNSQUUGw07UQn7uIZi4PWpiZ0m_wFMOJCeFvR-JY2QOzS5wuaMhe6A6_7u2BHJ5zkkqMB2tnQJdVMCcNglcImDSNq2ROlOPtSRskwhBMQYYY-0K0]--></g></svg>