<svg xmlns="http://www.w3.org/2000/svg" xmlns:xlink="http://www.w3.org/1999/xlink" contentStyleType="text/css" data-diagram-type="DESCRIPTION" height="357px" preserveAspectRatio="none" style="width:1086px;height:357px;background:#FFFFFF;" version="1.1" viewBox="0 0 1086 357" width="1086px" zoomAndPan="magnify"><defs/><g><!--cluster System--><g class="cluster" data-entity="System" data-source-line="6" data-uid="ent0002" id="cluster_System"><rect fill="#EEEEFF" height="87.29" rx="2.5" ry="2.5" style="stroke:#336699;stroke-width:1;" width="454" x="261.83" y="144.8"/><text fill="#000000" font-family="sans-serif" font-size="14" font-weight="bold" lengthAdjust="spacing" textLength="83.9996" x="446.8302" y="159.7951">&#24535;&#24895;&#26381;&#21153;&#31995;&#32479;</text></g><!--entity P1--><g class="entity" data-entity="P1" data-source-line="7" data-uid="ent0003" id="entity_P1"><rect fill="#EEEEFF" height="36.2969" rx="2.5" ry="2.5" style="stroke:#336699;stroke-width:0.5;" width="93.8074" x="277.92" y="179.8"/><text fill="#000000" font-family="sans-serif" font-size="14" lengthAdjust="spacing" textLength="73.8074" x="287.92" y="202.7951">1. &#39033;&#30446;&#31649;&#29702;</text></g><!--entity P2--><g class="entity" data-entity="P2" data-source-line="8" data-uid="ent0004" id="entity_P2"><rect fill="#EEEEFF" height="36.2969" rx="2.5" ry="2.5" style="stroke:#336699;stroke-width:0.5;" width="93.8074" x="605.92" y="179.8"/><text fill="#000000" font-family="sans-serif" font-size="14" lengthAdjust="spacing" textLength="73.8074" x="615.92" y="202.7951">2. &#25253;&#21517;&#31649;&#29702;</text></g><!--entity P3--><g class="entity" data-entity="P3" data-source-line="9" data-uid="ent0005" id="entity_P3"><rect fill="#EEEEFF" height="36.2969" rx="2.5" ry="2.5" style="stroke:#336699;stroke-width:0.5;" width="163.8071" x="406.92" y="179.8"/><text fill="#000000" font-family="sans-serif" font-size="14" lengthAdjust="spacing" textLength="143.8071" x="416.92" y="202.7951">3. &#25171;&#20998;&#19982;&#21382;&#21490;&#35760;&#24405;&#31649;&#29702;</text></g><!--entity ??--><g class="entity" data-entity=".." data-source-line="12" data-uid="ent0006" id="entity_.."><ellipse cx="844.8299" cy="14" fill="#F1F1F1" rx="8" ry="8" style="stroke:#181818;stroke-width:0.5;"/><path d="M844.8299,22 L844.8299,49 M831.8299,30 L857.8299,30 M844.8299,49 L831.8299,64 M844.8299,49 L857.8299,64" fill="none" style="stroke:#181818;stroke-width:0.5;"/><text fill="#000000" font-family="sans-serif" font-size="14" lengthAdjust="spacing" textLength="27.9999" x="830.83" y="78.4951">&#23398;&#29983;</text></g><!--entity ??????--><g class="entity" data-entity="......" data-source-line="13" data-uid="ent0007" id="entity_......"><ellipse cx="270.8298" cy="14" fill="#F1F1F1" rx="8" ry="8" style="stroke:#181818;stroke-width:0.5;"/><path d="M270.8298,22 L270.8298,49 M257.8298,30 L283.8298,30 M270.8298,49 L257.8298,64 M270.8298,49 L283.8298,64" fill="none" style="stroke:#181818;stroke-width:0.5;"/><text fill="#000000" font-family="sans-serif" font-size="14" lengthAdjust="spacing" textLength="83.9996" x="228.83" y="78.4951">&#24535;&#24895;&#26381;&#21153;&#22242;&#20307;</text></g><!--entity D1--><g class="entity" data-entity="D1" data-source-line="14" data-uid="ent0008" id="entity_D1"><path d="M286.83,305.09 C286.83,295.09 324.8299,295.09 324.8299,295.09 C324.8299,295.09 362.8298,295.09 362.8298,305.09 L362.8298,330.3869 C362.8298,340.3869 324.8299,340.3869 324.8299,340.3869 C324.8299,340.3869 286.83,340.3869 286.83,330.3869 L286.83,305.09" fill="#F1F1F1" style="stroke:#181818;stroke-width:0.5;"/><path d="M286.83,305.09 C286.83,315.09 324.8299,315.09 324.8299,315.09 C324.8299,315.09 362.8298,315.09 362.8298,305.09" fill="none" style="stroke:#181818;stroke-width:0.5;"/><text fill="#000000" font-family="sans-serif" font-size="14" lengthAdjust="spacing" textLength="55.9998" x="296.83" y="332.0851">&#39033;&#30446;&#25968;&#25454;</text></g><!--entity D2--><g class="entity" data-entity="D2" data-source-line="15" data-uid="ent0009" id="entity_D2"><path d="M614.83,305.09 C614.83,295.09 652.8299,295.09 652.8299,295.09 C652.8299,295.09 690.8298,295.09 690.8298,305.09 L690.8298,330.3869 C690.8298,340.3869 652.8299,340.3869 652.8299,340.3869 C652.8299,340.3869 614.83,340.3869 614.83,330.3869 L614.83,305.09" fill="#F1F1F1" style="stroke:#181818;stroke-width:0.5;"/><path d="M614.83,305.09 C614.83,315.09 652.8299,315.09 652.8299,315.09 C652.8299,315.09 690.8298,315.09 690.8298,305.09" fill="none" style="stroke:#181818;stroke-width:0.5;"/><text fill="#000000" font-family="sans-serif" font-size="14" lengthAdjust="spacing" textLength="55.9998" x="624.83" y="332.0851">&#23398;&#29983;&#25968;&#25454;</text></g><!--entity D3--><g class="entity" data-entity="D3" data-source-line="16" data-uid="ent0010" id="entity_D3"><path d="M450.83,305.09 C450.83,295.09 488.8299,295.09 488.8299,295.09 C488.8299,295.09 526.8298,295.09 526.8298,305.09 L526.8298,330.3869 C526.8298,340.3869 488.8299,340.3869 488.8299,340.3869 C488.8299,340.3869 450.83,340.3869 450.83,330.3869 L450.83,305.09" fill="#F1F1F1" style="stroke:#181818;stroke-width:0.5;"/><path d="M450.83,305.09 C450.83,315.09 488.8299,315.09 488.8299,315.09 C488.8299,315.09 526.8298,315.09 526.8298,305.09" fill="none" style="stroke:#181818;stroke-width:0.5;"/><text fill="#000000" font-family="sans-serif" font-size="14" lengthAdjust="spacing" textLength="55.9998" x="460.83" y="332.0851">&#21382;&#21490;&#35760;&#24405;</text></g><!--link ?? to P2--><g class="link" data-entity-1=".." data-entity-2="P2" data-source-line="18" data-uid="lnk11" id="link_.._P2"><path d="M859.22,50.78 C888.57,64.12 950.54,97.15 925.83,128.8 C898.31,164.02 776.5883,183.0043 706.0083,191.3643" fill="none" id="&#23398;&#29983;-to-P2" style="stroke:#181818;stroke-width:1;"/><polygon fill="#181818" points="700.05,192.07,709.458,194.9836,705.0153,191.4819,708.517,187.0391,700.05,192.07" style="stroke:#181818;stroke-width:1;"/><text fill="#000000" font-family="sans-serif" font-size="13" lengthAdjust="spacing" textLength="52.0001" x="931.83" y="124.8669">&#25253;&#21517;&#20449;&#24687;</text></g><!--link ?? to P2--><g class="link" data-entity-1=".." data-entity-2="P2" data-source-line="22" data-uid="lnk15" id="link_.._P2"><path d="M859.02,46.8 C903.17,54.06 1032.83,79.99 992.83,128.8 C956.34,173.32 790.5984,188.9874 706.0684,194.2474" fill="none" id="&#23398;&#29983;-to-P2-1" style="stroke:#181818;stroke-width:1;"/><polygon fill="#181818" points="700.08,194.62,709.3111,198.0533,705.0703,194.3095,708.8142,190.0688,700.08,194.62" style="stroke:#181818;stroke-width:1;"/><text fill="#000000" font-family="sans-serif" font-size="13" lengthAdjust="spacing" textLength="78.0001" x="1000.83" y="124.8669">&#26597;&#30475;&#39033;&#30446;&#20449;&#24687;</text></g><!--link P2 to ??--><g class="link" data-entity-1="P2" data-entity-2=".." data-source-line="23" data-uid="lnk16" id="link_P2_.."><path d="M700.03,185.46 C733.17,175.32 776.62,157.57 805.83,128.8 C818.79,116.03 825.7615,103.7421 831.9015,87.7321" fill="none" id="P2-to-&#23398;&#29983;" style="stroke:#181818;stroke-width:1;"/><polygon fill="#181818" points="834.05,82.13,827.0925,89.1009,832.2596,86.7985,834.562,91.9655,834.05,82.13" style="stroke:#181818;stroke-width:1;"/><text fill="#000000" font-family="sans-serif" font-size="13" lengthAdjust="spacing" textLength="78.0001" x="818.83" y="124.8669">&#36820;&#22238;&#39033;&#30446;&#21015;&#34920;</text></g><!--link P2 to D2--><g class="link" data-entity-1="P2" data-entity-2="D2" data-source-line="19" data-uid="lnk12" id="link_P2_D2"><path d="M652.83,216.58 C652.83,237.5 652.83,266.39 652.83,288.97" fill="none" id="P2-to-D2" style="stroke:#181818;stroke-width:1;"/><polygon fill="#181818" points="652.83,294.97,656.83,285.97,652.83,289.97,648.83,285.97,652.83,294.97" style="stroke:#181818;stroke-width:1;"/><text fill="#000000" font-family="sans-serif" font-size="13" lengthAdjust="spacing" textLength="78.0001" x="653.83" y="261.1569">&#20445;&#23384;&#25253;&#21517;&#20449;&#24687;</text></g><!--link ?????? to P1--><g class="link" data-entity-1="......" data-entity-2="P1" data-source-line="20" data-uid="lnk13" id="link_......_P1"><path d="M228.57,46.29 C152.8,50.78 6,67.45 53.83,128.8 C81.08,163.76 201.5732,182.8114 271.7032,191.2714" fill="none" id="&#24535;&#24895;&#26381;&#21153;&#22242;&#20307;-to-P1" style="stroke:#181818;stroke-width:1;"/><polygon fill="#181818" points="277.66,191.99,269.2038,186.9409,272.696,191.3912,268.2457,194.8833,277.66,191.99" style="stroke:#181818;stroke-width:1;"/><text fill="#000000" font-family="sans-serif" font-size="13" lengthAdjust="spacing" textLength="78.0001" x="54.83" y="124.8669">&#21457;&#24067;&#39033;&#30446;&#38656;&#27714;</text></g><!--link P1 to D1--><g class="link" data-entity-1="P1" data-entity-2="D1" data-source-line="21" data-uid="lnk14" id="link_P1_D1"><path d="M324.83,216.58 C324.83,237.5 324.83,266.39 324.83,288.97" fill="none" id="P1-to-D1" style="stroke:#181818;stroke-width:1;"/><polygon fill="#181818" points="324.83,294.97,328.83,285.97,324.83,289.97,320.83,285.97,324.83,294.97" style="stroke:#181818;stroke-width:1;"/><text fill="#000000" font-family="sans-serif" font-size="13" lengthAdjust="spacing" textLength="78.0001" x="325.83" y="261.1569">&#23384;&#20648;&#39033;&#30446;&#20449;&#24687;</text></g><!--link ?????? to P2--><g class="link" data-entity-1="......" data-entity-2="P2" data-source-line="24" data-uid="lnk17" id="link_......_P2"><path d="M313.32,57.23 C354.37,69.77 418.05,90.21 471.83,111.8 C488.25,118.39 490.78,124.07 507.83,128.8 C542.26,138.34 555.25,122.12 587.83,136.8 C608.86,146.27 623.6988,160.6975 635.5788,174.8275" fill="none" id="&#24535;&#24895;&#26381;&#21153;&#22242;&#20307;-to-P2" style="stroke:#181818;stroke-width:1;"/><polygon fill="#181818" points="639.44,179.42,636.7099,169.9571,636.2223,175.5929,630.5865,175.1054,639.44,179.42" style="stroke:#181818;stroke-width:1;"/><text fill="#000000" font-family="sans-serif" font-size="13" lengthAdjust="spacing" textLength="78.0001" x="508.83" y="124.8669">&#26597;&#30475;&#25253;&#21517;&#23398;&#29983;</text></g><!--link P2 to ??????--><g class="link" data-entity-1="P2" data-entity-2="......" data-source-line="25" data-uid="lnk18" id="link_P2_......"><path d="M639.82,179.38 C628.04,165.01 609.28,145.69 587.83,136.8 C545.92,119.43 426.6,143.91 383.83,128.8 C368.43,123.36 343.0351,104.4831 317.7751,84.0531" fill="none" id="P2-to-&#24535;&#24895;&#26381;&#21153;&#22242;&#20307;" style="stroke:#181818;stroke-width:1;"/><polygon fill="#181818" points="313.11,80.28,317.5923,89.0498,316.9976,83.4243,322.6231,82.8296,313.11,80.28" style="stroke:#181818;stroke-width:1;"/><text fill="#000000" font-family="sans-serif" font-size="13" lengthAdjust="spacing" textLength="78.0001" x="384.83" y="124.8669">&#36820;&#22238;&#25253;&#21517;&#20449;&#24687;</text></g><!--link ?????? to P3--><g class="link" data-entity-1="......" data-entity-2="P3" data-source-line="26" data-uid="lnk19" id="link_......_P3"><path d="M228.67,60.9 C192.34,77.16 149.31,103.35 173.83,128.8 C182.12,137.4 377.37,133.39 388.83,136.8 C418.34,145.58 443.2576,161.5432 462.5376,175.9832" fill="none" id="&#24535;&#24895;&#26381;&#21153;&#22242;&#20307;-to-P3" style="stroke:#181818;stroke-width:1;"/><polygon fill="#181818" points="467.34,179.58,462.5343,170.9832,463.338,176.5827,457.7385,177.3864,467.34,179.58" style="stroke:#181818;stroke-width:1;"/><text fill="#000000" font-family="sans-serif" font-size="13" lengthAdjust="spacing" textLength="52.0001" x="174.83" y="124.8669">&#25552;&#20132;&#35780;&#20998;</text></g><!--link P3 to ??????--><g class="link" data-entity-1="P3" data-entity-2="......" data-source-line="29" data-uid="lnk22" id="link_P3_......"><path d="M466.89,179.51 C447.57,165.23 418.02,145.95 388.83,136.8 C375.97,132.77 277.04,138.63 267.83,128.8 C256.34,116.52 254.7433,104.2098 257.6133,87.8498" fill="none" id="P3-to-&#24535;&#24895;&#26381;&#21153;&#22242;&#20307;" style="stroke:#181818;stroke-width:1;"/><polygon fill="#181818" points="258.65,81.94,253.1551,90.1135,257.7861,86.8648,261.0347,91.4958,258.65,81.94" style="stroke:#181818;stroke-width:1;"/><text fill="#000000" font-family="sans-serif" font-size="13" lengthAdjust="spacing" textLength="78.0001" x="268.83" y="124.8669">&#36820;&#22238;&#25171;&#20998;&#32467;&#26524;</text></g><!--link ?? to P3--><g class="link" data-entity-1=".." data-entity-2="P3" data-source-line="27" data-uid="lnk20" id="link_.._P3"><path d="M830.42,47.79 C794.94,55.8 700.95,78.72 627.83,111.8 C585.28,131.04 544.7632,157.4204 517.8332,176.1804" fill="none" id="&#23398;&#29983;-to-P3" style="stroke:#181818;stroke-width:1;"/><polygon fill="#181818" points="512.91,179.61,522.5812,177.7477,517.0127,176.752,518.0084,171.1835,512.91,179.61" style="stroke:#181818;stroke-width:1;"/><text fill="#000000" font-family="sans-serif" font-size="13" lengthAdjust="spacing" textLength="52.0001" x="628.83" y="124.8669">&#25552;&#20132;&#35780;&#20998;</text></g><!--link P3 to ??--><g class="link" data-entity-1="P3" data-entity-2=".." data-source-line="30" data-uid="lnk23" id="link_P3_.."><path d="M511.19,179.34 C530.54,165.17 559.91,146.12 588.83,136.8 C630,123.52 644.32,140.97 685.83,128.8 C701.28,124.26 703.6,119.34 717.83,111.8 C758.6,90.19 801.4642,67.5414 825.0442,55.0914" fill="none" id="P3-to-&#23398;&#29983;" style="stroke:#181818;stroke-width:1;"/><polygon fill="#181818" points="830.35,52.29,820.5236,52.9549,825.9285,54.6245,824.2589,60.0294,830.35,52.29" style="stroke:#181818;stroke-width:1;"/><text fill="#000000" font-family="sans-serif" font-size="13" lengthAdjust="spacing" textLength="78.0001" x="718.83" y="124.8669">&#36820;&#22238;&#25171;&#20998;&#32467;&#26524;</text></g><!--link P3 to D3--><g class="link" data-entity-1="P3" data-entity-2="D3" data-source-line="28" data-uid="lnk21" id="link_P3_D3"><path d="M488.83,216.58 C488.83,237.5 488.83,266.39 488.83,288.97" fill="none" id="P3-to-D3" style="stroke:#181818;stroke-width:1;"/><polygon fill="#181818" points="488.83,294.97,492.83,285.97,488.83,289.97,484.83,285.97,488.83,294.97" style="stroke:#181818;stroke-width:1;"/><text fill="#000000" font-family="sans-serif" font-size="13" lengthAdjust="spacing" textLength="78.0001" x="489.83" y="261.1569">&#26356;&#26032;&#21382;&#21490;&#20449;&#24687;</text></g><!--SRC=[ZP9DIm917CRlyoa6EoleWg273gMTWpx1f2BXoyPgXuYWJCGCNq9DGLCsChousil14jalipEhtwBPcTqSbQZZ_d_F_zddcPbCuYHzYXIKWaeiaaNfU386Bm24UoYIY2loMJgwBoTb1Uw4mmVMM5QYCSKUIPBV7mY0Im1MkowijqXU9zqoBgdc-yoSzLqGPU3HUIORIp5hAFpAvVN0fVffTZHJKyrQWMaFlPigdmUIqW3NogBAjwcIgEgsZei5Orh1bGAklYsq2PutnIN9YeiYMPeVZrxCHj_v46BZpfCnhuCeog9ZbA76F25fJaXPOpOXhq2vZqXz8XM2S2e1m5UWsxrBQy2WNSxGLN8z1dHYWP053FqHZzfhU3ifz_5IEQxUu-aDZxliNf7N7A1pviRmg8rpGuuTjyqa_O7PlLkJs7biPH0kz0RkzBW45riBTVXhffKZhs0VkUEulUMu_wknPBbNQyRNysASfzU-LcOBqWax20Ow7-HXmg_6QIdzcOczBNDM9xtkZtpzK4J9Dm00]--></g></svg>